<svg width="71" height="70" viewBox="0 0 71 70" fill="none" xmlns="http://www.w3.org/2000/svg">
<rect x="0.5" width="70" height="70" rx="35" fill="#C1C4C4"/>
<path d="M47.874 40.9813C47.2003 39.3854 46.2226 37.9359 44.9954 36.7134C43.7719 35.4874 42.3227 34.5098 40.7275 33.8348C40.7133 33.8277 40.699 33.8241 40.6847 33.817C42.9097 32.2098 44.3561 29.592 44.3561 26.6384C44.3561 21.7455 40.3918 17.7812 35.499 17.7812C30.6061 17.7812 26.6418 21.7455 26.6418 26.6384C26.6418 29.592 28.0883 32.2098 30.3133 33.8205C30.299 33.8277 30.2847 33.8313 30.2704 33.8384C28.6704 34.5134 27.2347 35.4813 26.0025 36.717C24.7765 37.9404 23.799 39.3897 23.124 40.9848C22.4608 42.5464 22.1032 44.2207 22.0704 45.917C22.0694 45.9551 22.0761 45.993 22.0901 46.0285C22.104 46.064 22.1249 46.0963 22.1515 46.1236C22.1781 46.1509 22.21 46.1726 22.2451 46.1874C22.2802 46.2022 22.318 46.2098 22.3561 46.2098H24.499C24.6561 46.2098 24.7811 46.0848 24.7847 45.9313C24.8561 43.1741 25.9633 40.592 27.9204 38.6348C29.9454 36.6098 32.6347 35.4955 35.499 35.4955C38.3633 35.4955 41.0525 36.6098 43.0775 38.6348C45.0347 40.592 46.1418 43.1741 46.2133 45.9313C46.2168 46.0884 46.3418 46.2098 46.499 46.2098H48.6418C48.68 46.2098 48.7177 46.2022 48.7528 46.1874C48.788 46.1726 48.8198 46.1509 48.8464 46.1236C48.8731 46.0963 48.8939 46.064 48.9079 46.0285C48.9218 45.993 48.9285 45.9551 48.9275 45.917C48.8918 44.2098 48.5383 42.5491 47.874 40.9813ZM35.499 32.7813C33.8597 32.7813 32.3168 32.142 31.1561 30.9813C29.9954 29.8205 29.3561 28.2777 29.3561 26.6384C29.3561 24.9991 29.9954 23.4563 31.1561 22.2955C32.3168 21.1348 33.8597 20.4955 35.499 20.4955C37.1383 20.4955 38.6811 21.1348 39.8418 22.2955C41.0025 23.4563 41.6418 24.9991 41.6418 26.6384C41.6418 28.2777 41.0025 29.8205 39.8418 30.9813C38.6811 32.142 37.1383 32.7813 35.499 32.7813Z" fill="white"/>
</svg>
