<svg width="22" height="22" viewBox="0 0 22 22" fill="none" xmlns="http://www.w3.org/2000/svg">
<path d="M11 13.75C12.5188 13.75 13.75 12.5188 13.75 11C13.75 9.48122 12.5188 8.25 11 8.25C9.48122 8.25 8.25 9.48122 8.25 11C8.25 12.5188 9.48122 13.75 11 13.75Z" stroke="#293130" stroke-width="1.5"/>
<path d="M12.6178 1.97332C12.2814 1.83398 11.8543 1.83398 10.9999 1.83398C10.1456 1.83398 9.71842 1.83398 9.38201 1.97332C9.15942 2.06545 8.95718 2.20056 8.78684 2.3709C8.6165 2.54124 8.4814 2.74348 8.38926 2.96607C8.30492 3.17048 8.27101 3.40973 8.25817 3.75715C8.25221 4.00825 8.18264 4.25374 8.056 4.47064C7.92935 4.68755 7.74975 4.86878 7.53401 4.9974C7.31475 5.12002 7.06796 5.18502 6.81675 5.1863C6.56553 5.18758 6.31809 5.12511 6.09759 5.00473C5.78959 4.84157 5.56684 4.75173 5.34592 4.7224C4.86405 4.65903 4.37673 4.7896 3.99109 5.0854C3.70326 5.30815 3.48876 5.67757 3.06159 6.41732C2.63442 7.15707 2.41992 7.52648 2.37317 7.88857C2.34167 8.12732 2.35752 8.36993 2.4198 8.60255C2.48209 8.83518 2.58959 9.05325 2.73617 9.24432C2.87184 9.42032 3.06159 9.5679 3.35584 9.75307C3.78942 10.0253 4.06809 10.4892 4.06809 11.0007C4.06809 11.5122 3.78942 11.976 3.35584 12.2473C3.06159 12.4334 2.87092 12.581 2.73617 12.757C2.58959 12.9481 2.48209 13.1661 2.4198 13.3987C2.35752 13.6314 2.34167 13.874 2.37317 14.1127C2.42084 14.4739 2.63442 14.8442 3.06067 15.584C3.48876 16.3237 3.70234 16.6931 3.99109 16.9159C4.18216 17.0625 4.40023 17.17 4.63285 17.2323C4.86548 17.2946 5.10809 17.3104 5.34684 17.2789C5.56684 17.2496 5.78959 17.1597 6.09759 16.9966C6.31809 16.8762 6.56553 16.8137 6.81675 16.815C7.06796 16.8163 7.31475 16.8813 7.53401 17.0039C7.97676 17.2606 8.23984 17.7327 8.25817 18.2442C8.27101 18.5925 8.30401 18.8308 8.38926 19.0352C8.4814 19.2578 8.6165 19.4601 8.78684 19.6304C8.95718 19.8007 9.15942 19.9358 9.38201 20.028C9.71842 20.1673 10.1456 20.1673 10.9999 20.1673C11.8543 20.1673 12.2814 20.1673 12.6178 20.028C12.8404 19.9358 13.0427 19.8007 13.213 19.6304C13.3834 19.4601 13.5185 19.2578 13.6106 19.0352C13.6949 18.8308 13.7288 18.5925 13.7417 18.2442C13.76 17.7327 14.0231 17.2597 14.4658 17.0039C14.6851 16.8813 14.9319 16.8163 15.1831 16.815C15.4343 16.8137 15.6818 16.8762 15.9023 16.9966C16.2103 17.1597 16.433 17.2496 16.653 17.2789C16.8918 17.3104 17.1344 17.2946 17.367 17.2323C17.5996 17.17 17.8177 17.0625 18.0088 16.9159C18.2975 16.6941 18.5111 16.3237 18.9383 15.584C19.3654 14.8442 19.5799 14.4748 19.6267 14.1127C19.6582 13.874 19.6423 13.6314 19.58 13.3987C19.5178 13.1661 19.4103 12.9481 19.2637 12.757C19.128 12.581 18.9383 12.4334 18.644 12.2482C18.4294 12.1175 18.2515 11.9345 18.127 11.7163C18.0024 11.4981 17.9352 11.2519 17.9318 11.0007C17.9318 10.4892 18.2104 10.0253 18.644 9.75398C18.9383 9.5679 19.1289 9.42032 19.2637 9.24432C19.4103 9.05325 19.5178 8.83518 19.58 8.60255C19.6423 8.36993 19.6582 8.12732 19.6267 7.88857C19.579 7.5274 19.3654 7.15707 18.9392 6.41732C18.5111 5.67757 18.2975 5.30815 18.0088 5.0854C17.8177 4.93882 17.5996 4.83131 17.367 4.76903C17.1344 4.70674 16.8918 4.6909 16.653 4.7224C16.433 4.75173 16.2103 4.84157 15.9013 5.00473C15.681 5.12495 15.4337 5.18733 15.1826 5.18605C14.9316 5.18476 14.685 5.11986 14.4658 4.9974C14.2501 4.86878 14.0705 4.68755 13.9439 4.47064C13.8172 4.25374 13.7476 4.00825 13.7417 3.75715C13.7288 3.40882 13.6958 3.17048 13.6106 2.96607C13.5185 2.74348 13.3834 2.54124 13.213 2.3709C13.0427 2.20056 12.8404 2.06545 12.6178 1.97332Z" stroke="#293130" stroke-width="1.5"/>
</svg>
