<svg width="22" height="22" viewBox="0 0 22 22" fill="none" xmlns="http://www.w3.org/2000/svg">
<path d="M13.6997 1.14648C12.4466 1.14648 11.4355 1.14648 10.6408 1.25373C9.8158 1.36373 9.12096 1.60207 8.56913 2.15298C8.0888 2.63423 7.84496 3.22548 7.71755 3.92032C7.5938 4.5959 7.56996 5.42182 7.56446 6.41365C7.56349 6.59599 7.63499 6.77124 7.76323 6.90086C7.89148 7.03048 8.06596 7.10385 8.2483 7.10482C8.43063 7.10579 8.60589 7.03429 8.73551 6.90605C8.86513 6.7778 8.93849 6.60332 8.93946 6.42098C8.94496 5.41907 8.97063 4.70865 9.06963 4.16873C9.16588 3.6499 9.31896 3.34832 9.54171 3.12557C9.79563 2.87165 10.1522 2.70665 10.825 2.6159C11.5171 2.52332 12.4347 2.52148 13.7501 2.52148H14.6668C15.9831 2.52148 16.9007 2.52332 17.5928 2.6159C18.2656 2.70665 18.6213 2.87257 18.8761 3.12557C19.1291 3.37948 19.2941 3.73515 19.3849 4.4089C19.4784 5.10007 19.4793 6.01857 19.4793 7.33398V14.6673C19.4793 15.9827 19.4784 16.9003 19.3849 17.5933C19.2941 18.2661 19.1291 18.6218 18.8752 18.8757C18.6213 19.1297 18.2656 19.2946 17.5928 19.3854C16.9007 19.478 15.9831 19.4798 14.6668 19.4798H13.7501C12.4347 19.4798 11.5171 19.478 10.8241 19.3854C10.1522 19.2946 9.79563 19.1287 9.54171 18.8757C9.31896 18.6521 9.16588 18.3514 9.06963 17.8326C8.97063 17.2927 8.94496 16.5822 8.93946 15.5803C8.93898 15.49 8.92072 15.4007 8.88573 15.3175C8.85073 15.2343 8.79969 15.1588 8.73551 15.0953C8.67133 15.0318 8.59527 14.9815 8.51167 14.9474C8.42808 14.9133 8.33858 14.896 8.2483 14.8965C8.15801 14.897 8.06871 14.9152 7.98548 14.9502C7.90225 14.9852 7.82673 15.0363 7.76323 15.1004C7.69973 15.1646 7.6495 15.2407 7.61539 15.3243C7.58129 15.4079 7.56398 15.4974 7.56446 15.5877C7.56996 16.5795 7.5938 17.4054 7.71755 18.081C7.84588 18.7758 8.0888 19.3671 8.57005 19.8483C9.12096 20.4002 9.81671 20.6367 10.6417 20.7485C11.4355 20.8548 12.4466 20.8548 13.6997 20.8548H14.7172C15.9712 20.8548 16.9814 20.8548 17.7761 20.7485C18.6011 20.6367 19.296 20.4002 19.8478 19.8483C20.3996 19.2965 20.6361 18.6017 20.748 17.7767C20.8543 16.9819 20.8543 15.9708 20.8543 14.7177V7.28357C20.8543 6.03048 20.8543 5.0194 20.748 4.22465C20.637 3.39965 20.3996 2.70482 19.8478 2.15298C19.296 1.60115 18.6011 1.36465 17.7761 1.25373C16.9814 1.14648 15.9703 1.14648 14.7172 1.14648H13.6997Z" fill="#293130"/>
<path d="M13.7502 10.3128C13.9325 10.3128 14.1074 10.3853 14.2363 10.5142C14.3653 10.6431 14.4377 10.818 14.4377 11.0003C14.4377 11.1827 14.3653 11.3575 14.2363 11.4865C14.1074 11.6154 13.9325 11.6878 13.7502 11.6878H3.6916L5.48919 13.2278C5.62776 13.3465 5.71353 13.5153 5.72763 13.6972C5.74172 13.8791 5.68299 14.0591 5.56435 14.1977C5.44571 14.3362 5.27688 14.422 5.095 14.4361C4.91312 14.4502 4.73309 14.3915 4.59452 14.2728L1.38619 11.5228C1.31071 11.4583 1.25012 11.3782 1.20857 11.288C1.16702 11.1978 1.14551 11.0996 1.14551 11.0003C1.14551 10.901 1.16702 10.8029 1.20857 10.7127C1.25012 10.6225 1.31071 10.5424 1.38619 10.4778L4.59452 7.72783C4.66313 7.66909 4.74265 7.62443 4.82852 7.59642C4.9144 7.5684 5.00495 7.55758 5.095 7.56456C5.18506 7.57154 5.27286 7.59619 5.35339 7.6371C5.43392 7.67801 5.50561 7.73438 5.56435 7.803C5.6231 7.87162 5.66775 7.95113 5.69577 8.037C5.72378 8.12288 5.73461 8.21343 5.72763 8.30348C5.72065 8.39354 5.696 8.48134 5.65509 8.56187C5.61417 8.6424 5.5578 8.71409 5.48919 8.77283L3.69252 10.3128H13.7502Z" fill="#293130"/>
</svg>
