<svg width="26" height="26" viewBox="0 0 26 26" fill="none" xmlns="http://www.w3.org/2000/svg">
<path fill-rule="evenodd" clip-rule="evenodd" d="M17.0623 6.22949V9.01908C17.9798 9.20663 18.8043 9.70529 19.3965 10.4307C19.9886 11.1562 20.3121 12.0639 20.3121 13.0003C20.3121 13.9368 19.9886 14.8445 19.3965 15.5699C18.8043 16.2954 17.9798 16.794 17.0623 16.9816V19.7701C18.1858 19.7679 19.0383 19.7538 19.7273 19.6834C20.5615 19.5989 21.0653 19.4386 21.4563 19.1775C21.8398 18.9207 22.1713 18.5903 22.427 18.2068C22.6881 17.8157 22.8495 17.3109 22.934 16.4778C23.0207 15.6317 23.0207 14.5387 23.0207 13.0003C23.0207 11.462 23.0207 10.3689 22.934 9.52283C22.8484 8.68866 22.6881 8.18491 22.427 7.79383C22.1692 7.4106 21.8396 7.08097 21.4563 6.82316C21.0653 6.56208 20.5604 6.40066 19.7273 6.31616C19.0383 6.24683 18.1858 6.23274 17.0623 6.22949ZM15.4373 19.7712V6.22949H10.5623V19.7712H15.4373ZM8.93734 19.7712V16.9816C8.01987 16.794 7.19534 16.2954 6.60319 15.5699C6.01103 14.8445 5.68761 13.9368 5.68761 13.0003C5.68761 12.0639 6.01103 11.1562 6.60319 10.4307C7.19534 9.70529 8.01987 9.20663 8.93734 9.01908V6.23058C7.81392 6.23274 6.96134 6.24683 6.27234 6.31724C5.43817 6.40174 4.93442 6.56208 4.54334 6.82316C4.16012 7.08097 3.83049 7.4106 3.57267 7.79383C3.31159 8.18491 3.15017 8.68974 3.06567 9.52283C2.979 10.3689 2.979 11.462 2.979 13.0003C2.979 14.5387 2.979 15.6317 3.06567 16.4778C3.15125 17.312 3.31159 17.8157 3.57267 18.2068C3.82942 18.5903 4.15984 18.9218 4.54334 19.1775C4.93442 19.4386 5.43925 19.6 6.27234 19.6845C6.96134 19.7538 7.81392 19.7679 8.93734 19.7712ZM8.93734 10.7015C8.4616 10.8692 8.04961 11.1804 7.75818 11.5921C7.46676 12.0039 7.31025 12.4959 7.31025 13.0003C7.31025 13.5048 7.46676 13.9968 7.75818 14.4085C8.04961 14.8203 8.4616 15.1314 8.93734 15.2992V10.7015ZM17.0623 15.2992C17.5376 15.1309 17.949 14.8196 18.24 14.4079C18.531 13.9962 18.6873 13.5045 18.6873 13.0003C18.6873 12.4962 18.531 12.0044 18.24 11.5928C17.949 11.1811 17.5376 10.8697 17.0623 10.7015V15.2992ZM19.892 4.69983C20.854 4.79733 21.6568 5.00316 22.3588 5.47224C22.921 5.84708 23.4031 6.32916 23.7779 6.89141C24.2481 7.59341 24.4528 8.39724 24.5503 9.35816C24.6457 10.2963 24.6457 11.4717 24.6457 12.9548V13.0458C24.6457 14.5289 24.6457 15.7043 24.5503 16.6425C24.4528 17.6045 24.247 18.4072 23.779 19.1092C23.4023 19.6701 22.9199 20.1521 22.3588 20.5284C21.6568 20.9986 20.8529 21.2033 19.892 21.3008C18.9538 21.3962 17.7784 21.3962 16.2953 21.3962H9.70434C8.22125 21.3962 7.04584 21.3962 6.10767 21.3008C5.14567 21.2033 4.34292 20.9975 3.64092 20.5295C3.08009 20.1528 2.59805 19.6704 2.22175 19.1092C1.75159 18.4072 1.54684 17.6034 1.44934 16.6425C1.354 15.7043 1.354 14.5289 1.354 13.0458V12.9548C1.354 11.4717 1.354 10.2963 1.44934 9.35816C1.54684 8.39616 1.75267 7.59341 2.22175 6.89141C2.59816 6.33068 3.0802 5.84865 3.64092 5.47224C4.34292 5.00208 5.14675 4.79733 6.10767 4.69983C7.04584 4.60449 8.22125 4.60449 9.70434 4.60449H16.2953C17.7784 4.60449 18.9538 4.60449 19.892 4.69983Z" fill="black"/>
</svg>
