<svg width="32" height="33" viewBox="0 0 32 33" fill="none" xmlns="http://www.w3.org/2000/svg">
                                <path d="M2.65674 12.3837C2.65674 9.5104 2.65674 8.0744 3.43807 7.18106C4.2194 6.28773 5.4754 6.28906 7.99007 6.28906H23.9901C26.5047 6.28906 27.7607 6.28906 28.5421 7.1824C29.3234 8.07306 29.3234 9.50906 29.3234 12.3824V21.5264C29.3234 24.3997 29.3234 25.8357 28.5421 26.7291C27.7607 27.6224 26.5047 27.6224 23.9901 27.6224H7.99007C5.4754 27.6224 4.2194 27.6224 3.43807 26.7291C2.65674 25.8384 2.65674 24.4024 2.65674 21.5291V12.3837Z" stroke="#495E16" stroke-width="1.5" stroke-linecap="round" stroke-linejoin="round" />
                                <path d="M15.9899 19.6224C17.4627 19.6224 18.6566 18.4285 18.6566 16.9557C18.6566 15.483 17.4627 14.2891 15.9899 14.2891C14.5171 14.2891 13.3232 15.483 13.3232 16.9557C13.3232 18.4285 14.5171 19.6224 15.9899 19.6224Z" stroke="#495E16" stroke-width="1.5" stroke-linecap="round" stroke-linejoin="round" />
                                <path d="M15.9901 14.2887V7.62207M15.9901 19.6221V26.2887M29.3234 12.9554H25.9901C25.6364 12.9554 25.2973 13.0959 25.0473 13.3459C24.7972 13.596 24.6567 13.9351 24.6567 14.2887V19.6221C24.6567 19.9757 24.7972 20.3148 25.0473 20.5649C25.2973 20.8149 25.6364 20.9554 25.9901 20.9554H29.3234M2.65674 12.9554H5.99007C6.34369 12.9554 6.68283 13.0959 6.93288 13.3459C7.18293 13.596 7.3234 13.9351 7.3234 14.2887V19.6221C7.3234 19.9757 7.18293 20.3148 6.93288 20.5649C6.68283 20.8149 6.34369 20.9554 5.99007 20.9554H2.65674" stroke="#495E16" stroke-width="1.5" stroke-linecap="round" stroke-linejoin="round" />
                            </svg>