<svg width="29" height="29" viewBox="0 0 29 29" fill="none" xmlns="http://www.w3.org/2000/svg">
<path d="M8.66391 3.92676H15.5031C16.1495 3.92676 16.6872 3.92676 17.1283 3.96301C17.5875 3.99926 18.0176 4.08142 18.4248 4.28926C19.0502 4.60786 19.5586 5.1163 19.8772 5.74167C20.0851 6.14888 20.1672 6.57905 20.2035 7.03822C20.2397 7.47926 20.2397 8.01697 20.2397 8.66342V12.3851C20.2397 12.6254 20.1443 12.856 19.9743 13.0259C19.8044 13.1959 19.5738 13.2913 19.3335 13.2913C19.0931 13.2913 18.8626 13.1959 18.6927 13.0259C18.5227 12.856 18.4272 12.6254 18.4272 12.3851V8.69967C18.4272 8.00851 18.4272 7.5433 18.397 7.18563C18.3692 6.83884 18.3185 6.6733 18.2629 6.56455C18.1183 6.28007 17.8874 6.04869 17.6032 5.90359C17.4932 5.84801 17.3277 5.79726 16.9809 5.76947C16.6232 5.74047 16.1592 5.73926 15.4668 5.73926H8.70016C8.009 5.73926 7.54379 5.73926 7.18612 5.76947C6.83933 5.79726 6.67379 5.84801 6.56504 5.90359C6.28037 6.04848 6.04897 6.27988 5.90408 6.56455C5.8485 6.6733 5.79775 6.83884 5.76995 7.18563C5.74095 7.5433 5.73975 8.0073 5.73975 8.69967V20.2997C5.73975 20.9908 5.73975 21.456 5.76995 21.8125C5.79775 22.1605 5.8485 22.326 5.90408 22.4348C6.04183 22.7043 6.2545 22.9254 6.51791 23.0704C6.53725 23.0752 6.57994 23.0829 6.646 23.0933C6.78697 23.1143 6.97869 23.1336 7.22116 23.1513C7.70208 23.1876 8.32075 23.2118 8.97808 23.2275C10.2891 23.2601 11.7089 23.2601 12.3856 23.2601C12.6259 23.2601 12.8564 23.3556 13.0264 23.5255C13.1964 23.6955 13.2918 23.926 13.2918 24.1663C13.2918 24.4067 13.1964 24.6372 13.0264 24.8072C12.8564 24.9771 12.6259 25.0726 12.3856 25.0726H12.3832C11.7065 25.0726 10.2686 25.0726 8.93337 25.04C8.31779 25.0272 7.70258 25.0002 7.08825 24.959C6.85181 24.9435 6.61603 24.9193 6.38137 24.8865C6.16013 24.8608 5.94413 24.8013 5.74095 24.7101C5.11639 24.3919 4.60844 23.8844 4.28975 23.2601C4.08191 22.8517 3.99975 22.4215 3.9635 21.9623C3.92725 21.5213 3.92725 20.9836 3.92725 20.3371V8.66342C3.92725 8.01697 3.92725 7.47926 3.9635 7.03822C3.99975 6.57905 4.08191 6.14888 4.28975 5.74167C4.60835 5.1163 5.11679 4.60786 5.74216 4.28926C6.14937 4.08142 6.57954 3.99926 7.0387 3.96301C7.47975 3.92676 8.01745 3.92676 8.66391 3.92676Z" fill="black"/>
<path d="M17.3648 14.8018H22.5099C22.9872 14.8018 23.3992 14.8018 23.7388 14.8295C24.0976 14.8585 24.4541 14.9238 24.796 15.0978C25.3084 15.3588 25.724 15.7745 25.985 16.2868C26.159 16.6288 26.2243 16.9852 26.2533 17.3441C26.2811 17.6824 26.2811 18.0957 26.2811 18.573V21.3014C26.2811 21.7787 26.2811 22.1907 26.2533 22.5303C26.2346 22.8969 26.1434 23.2563 25.985 23.5875C25.7246 24.0994 25.3088 24.5156 24.7973 24.7765C24.4541 24.9505 24.0964 25.0158 23.7388 25.0448C23.4004 25.0726 22.9872 25.0726 22.5099 25.0726H17.3636C16.8863 25.0726 16.4743 25.0726 16.1347 25.0448C15.768 25.0261 15.4087 24.9349 15.0774 24.7765C14.5656 24.5161 14.1494 24.1003 13.8884 23.5888C13.7299 23.2571 13.6387 22.8974 13.6202 22.5303C13.5924 22.1919 13.5924 21.7787 13.5924 21.3014V18.5718C13.5924 18.0945 13.5924 17.6824 13.6202 17.3429C13.6389 16.9762 13.73 16.6168 13.8884 16.2856C14.1492 15.7736 14.5654 15.3573 15.0774 15.0966C15.4087 14.9382 15.768 14.847 16.1347 14.8283C16.473 14.8005 16.8863 14.8005 17.3636 14.8005M16.2821 16.6348C16.0356 16.6553 15.9438 16.6892 15.8991 16.7121C15.729 16.7989 15.5908 16.9372 15.504 17.1073C15.4798 17.1532 15.4472 17.2438 15.4266 17.4903L15.4242 17.5193H24.448L24.4456 17.4903C24.4251 17.2438 24.3913 17.152 24.3683 17.1073C24.2812 16.937 24.1424 16.7987 23.972 16.7121C23.9273 16.688 23.8366 16.6553 23.5901 16.6348C23.2183 16.6143 22.8459 16.6071 22.4736 16.613H17.3986C16.8766 16.613 16.5383 16.613 16.2821 16.6348ZM24.4686 19.9372H15.4061V21.2663C15.4061 21.7883 15.4061 22.1267 15.4278 22.3828C15.4484 22.6293 15.4822 22.7212 15.5052 22.7647C15.5918 22.9352 15.7301 23.0739 15.9003 23.161C15.9462 23.1852 16.0368 23.2178 16.2833 23.2383C16.5395 23.2589 16.8778 23.2601 17.3998 23.2601H22.4748C22.9968 23.2601 23.3352 23.2601 23.5913 23.2383C23.8378 23.2178 23.9297 23.184 23.9732 23.161C24.1438 23.0741 24.2826 22.9353 24.3695 22.7647C24.3937 22.72 24.4263 22.6293 24.4468 22.3828C24.4674 22.1267 24.4686 21.7883 24.4686 21.2663V19.9372ZM7.854 7.55176C7.61365 7.55176 7.38314 7.64724 7.21319 7.81719C7.04323 7.98715 6.94775 8.21766 6.94775 8.45801C6.94775 8.69836 7.04323 8.92887 7.21319 9.09882C7.38314 9.26878 7.61365 9.36426 7.854 9.36426H12.6873C12.9277 9.36426 13.1582 9.26878 13.3282 9.09882C13.4981 8.92887 13.5936 8.69836 13.5936 8.45801C13.5936 8.21766 13.4981 7.98715 13.3282 7.81719C13.1582 7.64724 12.9277 7.55176 12.6873 7.55176H7.854ZM6.94775 12.083C6.94775 11.8427 7.04323 11.6121 7.21319 11.4422C7.38314 11.2722 7.61365 11.1768 7.854 11.1768H16.3123C16.5527 11.1768 16.7832 11.2722 16.9532 11.4422C17.1231 11.6121 17.2186 11.8427 17.2186 12.083C17.2186 12.3234 17.1231 12.5539 16.9532 12.7238C16.7832 12.8938 16.5527 12.9893 16.3123 12.9893H7.854C7.61365 12.9893 7.38314 12.8938 7.21319 12.7238C7.04323 12.5539 6.94775 12.3234 6.94775 12.083ZM7.854 14.8018C7.61365 14.8018 7.38314 14.8972 7.21319 15.0672C7.04323 15.2371 6.94775 15.4677 6.94775 15.708C6.94775 15.9484 7.04323 16.1789 7.21319 16.3488C7.38314 16.5188 7.61365 16.6143 7.854 16.6143H12.0832C12.3235 16.6143 12.554 16.5188 12.724 16.3488C12.8939 16.1789 12.9894 15.9484 12.9894 15.708C12.9894 15.4677 12.8939 15.2371 12.724 15.0672C12.554 14.8972 12.3235 14.8018 12.0832 14.8018H7.854ZM6.94775 20.5413C6.94775 20.301 7.04323 20.0705 7.21319 19.9005C7.38314 19.7306 7.61365 19.6351 7.854 19.6351H10.2707C10.511 19.6351 10.7415 19.7306 10.9115 19.9005C11.0814 20.0705 11.1769 20.301 11.1769 20.5413C11.1769 20.7817 11.0814 21.0122 10.9115 21.1822C10.7415 21.3521 10.511 21.4476 10.2707 21.4476H7.854C7.61365 21.4476 7.38314 21.3521 7.21319 21.1822C7.04323 21.0122 6.94775 20.7817 6.94775 20.5413Z" fill="black"/>
</svg>
