<svg width="30" height="30" viewBox="0 0 30 30" fill="none" xmlns="http://www.w3.org/2000/svg">
<path d="M24.1466 20.5046C23.4132 19.7707 22.5564 19.1717 21.6153 18.7351C22.9425 17.6599 23.7891 16.0192 23.7891 14.1794C23.7891 10.9333 21.0821 8.27022 17.836 8.32002C14.6397 8.36983 12.0645 10.9743 12.0645 14.1794C12.0645 16.0192 12.9141 17.6599 14.2384 18.7351C13.2971 19.1714 12.4402 19.7704 11.7071 20.5046C10.1075 22.1071 9.19929 24.2224 9.1407 26.4782C9.13992 26.5095 9.1454 26.5406 9.15683 26.5697C9.16826 26.5988 9.1854 26.6254 9.20724 26.6478C9.22908 26.6701 9.25518 26.6879 9.28401 26.7001C9.31283 26.7122 9.34379 26.7185 9.37507 26.7185H11.0157C11.1417 26.7185 11.2471 26.6189 11.2501 26.4929C11.3057 24.7937 11.9942 23.2028 13.2042 21.9958C13.8233 21.3734 14.5598 20.8799 15.3709 20.544C16.1821 20.208 17.0518 20.0363 17.9298 20.0388C19.7139 20.0388 21.3926 20.7331 22.6553 21.9958C23.8624 23.2028 24.5509 24.7937 24.6094 26.4929C24.6124 26.6189 24.7178 26.7185 24.8438 26.7185H26.4844C26.5157 26.7185 26.5467 26.7122 26.5755 26.7001C26.6043 26.6879 26.6304 26.6701 26.6523 26.6478C26.6741 26.6254 26.6913 26.5988 26.7027 26.5697C26.7141 26.5406 26.7196 26.5095 26.7188 26.4782C26.6602 24.2224 25.752 22.1071 24.1466 20.5046ZM17.9298 17.9294C16.9278 17.9294 15.9844 17.5398 15.2784 16.8308C14.9241 16.4792 14.6442 16.0599 14.4554 15.5978C14.2667 15.1358 14.1729 14.6404 14.1798 14.1413C14.1885 13.1804 14.5723 12.2517 15.2432 11.5632C15.9464 10.8425 16.8868 10.4411 17.8917 10.4294C18.8848 10.4206 19.8487 10.8073 20.5577 11.5017C21.2843 12.2136 21.6827 13.1657 21.6827 14.1794C21.6827 15.1814 21.293 16.1218 20.5841 16.8308C20.2362 17.1803 19.8225 17.4573 19.3669 17.6459C18.9113 17.8345 18.4228 17.9308 17.9298 17.9294ZM10.5909 14.9528C10.5645 14.698 10.5499 14.4401 10.5499 14.1794C10.5499 13.7136 10.5938 13.2595 10.6759 12.8171C10.6964 12.7116 10.6407 12.6032 10.544 12.5593C10.1456 12.3806 9.77937 12.1345 9.46296 11.8239C9.09013 11.4624 8.79675 11.0272 8.60153 10.546C8.40632 10.0647 8.31356 9.54809 8.32917 9.02901C8.35554 8.08858 8.73347 7.19502 9.39265 6.5212C10.1163 5.77998 11.0889 5.37569 12.1231 5.38741C13.0577 5.39619 13.96 5.75655 14.6426 6.39522C14.8741 6.61202 15.0733 6.85225 15.2403 7.11006C15.2989 7.20088 15.4132 7.23897 15.5128 7.20381C16.0284 7.0251 16.5733 6.89912 17.1329 6.84053C17.2969 6.82295 17.3907 6.64717 17.3175 6.50069C16.3653 4.6169 14.42 3.31612 12.17 3.28096C8.92097 3.23116 6.21394 5.89424 6.21394 9.13741C6.21394 10.9772 7.06062 12.6179 8.38777 13.6931C7.45613 14.1237 6.59773 14.7185 5.85359 15.4626C4.24812 17.0651 3.33992 19.1804 3.28132 21.4392C3.28054 21.4704 3.28603 21.5015 3.29745 21.5307C3.30888 21.5598 3.32602 21.5863 3.34786 21.6087C3.36971 21.6311 3.39581 21.6489 3.42463 21.661C3.45346 21.6732 3.48442 21.6794 3.5157 21.6794H5.15925C5.28523 21.6794 5.3907 21.5798 5.39363 21.4538C5.44929 19.7546 6.13777 18.1638 7.34773 16.9567C8.20906 16.0954 9.26374 15.4978 10.4151 15.2077C10.5294 15.1784 10.6055 15.07 10.5909 14.9528Z" fill="#495E16"/>
</svg>